M48
; DRILL file {KiCad (5.1.5)-3} date 3/3/2020 5:01:24 PM
; FORMAT={-:-/ absolute / inch / decimal}
; #@! TF.CreationDate,2020-03-03T17:01:24-05:00
; #@! TF.GenerationSoftware,Kicad,Pcbnew,(5.1.5)-3
FMAT,2
INCH
T1C0.0276
T2C0.0295
T3C0.0354
T4C0.0394
T5C0.0400
T6C0.1083
%
G90
G05
T1
X1.03Y-1.04
X1.03Y-0.81
X1.33Y-0.81
X1.03Y-0.9
X1.33Y-0.9
X1.33Y-1.04
X1.03Y-1.13
X1.33Y-1.13
T2
X1.56Y-1.32
X1.61Y-1.32
X1.66Y-1.32
X2.1Y-0.85
X2.15Y-0.85
X2.2Y-0.85
X2.54Y-0.85
X2.59Y-0.85
X2.64Y-0.85
X1.44Y-0.85
X1.49Y-0.85
X1.54Y-0.85
X0.8645Y-0.8254
X0.8645Y-0.8754
X0.8645Y-0.9254
X0.8635Y-1.0434
X0.8635Y-1.0934
X0.8635Y-1.1434
X1.66Y-0.85
X1.71Y-0.85
X1.76Y-0.85
X1.88Y-0.85
X1.93Y-0.85
X1.98Y-0.85
X2.32Y-0.85
X2.37Y-0.85
X2.42Y-0.85
T3
X1.8784Y-1.1
X1.9784Y-1.1
X2.32Y-1.1
X2.42Y-1.1
X1.77Y-1.33
X1.87Y-1.33
X1.66Y-1.1
X1.76Y-1.1
X1.44Y-1.1
X1.54Y-1.1
X2.54Y-1.1
X2.64Y-1.1
X2.1Y-1.1
X2.2Y-1.1
T4
X0.6828Y-0.8354
X0.6828Y-0.9354
X0.6828Y-1.0354
X0.6828Y-1.1354
X0.6828Y-1.2354
X0.6828Y-1.3354
X1.8783Y-1.5059
X1.9783Y-1.5059
X2.1476Y-1.5059
X2.2476Y-1.5059
X2.3476Y-1.5059
X2.4476Y-1.5059
X2.5476Y-1.5059
X2.6476Y-1.5059
X0.9271Y-1.5059
X1.0271Y-1.5059
X1.1271Y-1.5059
X1.2271Y-1.5059
X1.3271Y-1.5059
X1.4271Y-1.5059
X1.6027Y-1.5059
X1.7027Y-1.5059
X2.8867Y-0.8341
X2.8867Y-0.9341
X2.8867Y-1.0341
X2.8867Y-1.1341
X2.8867Y-1.2341
X2.8867Y-1.3341
T5
X0.8298Y-0.5874
X0.8298Y-0.6874
X0.9298Y-0.5874
X0.9298Y-0.6874
X1.0298Y-0.5874
X1.0298Y-0.6874
X1.1298Y-0.5874
X1.1298Y-0.6874
X1.2298Y-0.5874
X1.2298Y-0.6874
X1.3298Y-0.5874
X1.3298Y-0.6874
X1.4298Y-0.5874
X1.4298Y-0.6874
X1.5298Y-0.5874
X1.5298Y-0.6874
X1.6298Y-0.5874
X1.6298Y-0.6874
X1.7298Y-0.5874
X1.7298Y-0.6874
X1.8298Y-0.5874
X1.8298Y-0.6874
X1.9298Y-0.5874
X1.9298Y-0.6874
X2.0298Y-0.5874
X2.0298Y-0.6874
X2.1298Y-0.5874
X2.1298Y-0.6874
X2.2298Y-0.5874
X2.2298Y-0.6874
X2.3298Y-0.5874
X2.3298Y-0.6874
X2.4298Y-0.5874
X2.4298Y-0.6874
X2.5298Y-0.5874
X2.5298Y-0.6874
X2.6298Y-0.5874
X2.6298Y-0.6874
X2.7298Y-0.5874
X2.7298Y-0.6874
T6
X0.6397Y-1.5453
X0.6397Y-0.6398
X2.9252Y-0.6398
X2.9232Y-1.5453
T0
M30
