G04 #@! TF.GenerationSoftware,KiCad,Pcbnew,(5.1.5)-3*
G04 #@! TF.CreationDate,2020-03-03T17:02:05-05:00*
G04 #@! TF.ProjectId,RPi_Zero_pHat_Template,5250695f-5a65-4726-9f5f-704861745f54,rev?*
G04 #@! TF.SameCoordinates,Original*
G04 #@! TF.FileFunction,Legend,Top*
G04 #@! TF.FilePolarity,Positive*
%FSLAX46Y46*%
G04 Gerber Fmt 4.6, Leading zero omitted, Abs format (unit mm)*
G04 Created by KiCad (PCBNEW (5.1.5)-3) date 2020-03-03 17:02:05*
%MOMM*%
%LPD*%
G04 APERTURE LIST*
%ADD10C,0.120000*%
%ADD11C,0.150000*%
G04 APERTURE END LIST*
D10*
X20094422Y-29610838D02*
G75*
G03X24532900Y-27772360I1838478J1838478D01*
G01*
X20094422Y-25933882D02*
G75*
G02X24532900Y-27772360I1838478J-1838478D01*
G01*
X20082900Y-25972360D02*
X20082900Y-29572360D01*
X58359522Y-19751522D02*
G75*
G03X60198000Y-24190000I1838478J-1838478D01*
G01*
X62036478Y-19751522D02*
G75*
G02X60198000Y-24190000I-1838478J-1838478D01*
G01*
X61998000Y-19740000D02*
X58398000Y-19740000D01*
X37518920Y-36979960D02*
X37518920Y-38249960D01*
X36248920Y-36979960D02*
X37518920Y-36979960D01*
X23168920Y-39292889D02*
X23168920Y-39689960D01*
X23928920Y-39292889D02*
X23928920Y-39689960D01*
X23168920Y-48349960D02*
X23168920Y-42349960D01*
X23928920Y-48349960D02*
X23168920Y-48349960D01*
X23928920Y-42349960D02*
X23928920Y-48349960D01*
X24818920Y-39689960D02*
X24818920Y-42349960D01*
X25708920Y-39292889D02*
X25708920Y-39689960D01*
X26468920Y-39292889D02*
X26468920Y-39689960D01*
X25708920Y-48349960D02*
X25708920Y-42349960D01*
X26468920Y-48349960D02*
X25708920Y-48349960D01*
X26468920Y-42349960D02*
X26468920Y-48349960D01*
X27358920Y-39689960D02*
X27358920Y-42349960D01*
X28248920Y-39292889D02*
X28248920Y-39689960D01*
X29008920Y-39292889D02*
X29008920Y-39689960D01*
X28248920Y-48349960D02*
X28248920Y-42349960D01*
X29008920Y-48349960D02*
X28248920Y-48349960D01*
X29008920Y-42349960D02*
X29008920Y-48349960D01*
X29898920Y-39689960D02*
X29898920Y-42349960D01*
X30788920Y-39292889D02*
X30788920Y-39689960D01*
X31548920Y-39292889D02*
X31548920Y-39689960D01*
X30788920Y-48349960D02*
X30788920Y-42349960D01*
X31548920Y-48349960D02*
X30788920Y-48349960D01*
X31548920Y-42349960D02*
X31548920Y-48349960D01*
X32438920Y-39689960D02*
X32438920Y-42349960D01*
X33328920Y-39292889D02*
X33328920Y-39689960D01*
X34088920Y-39292889D02*
X34088920Y-39689960D01*
X33328920Y-48349960D02*
X33328920Y-42349960D01*
X34088920Y-48349960D02*
X33328920Y-48349960D01*
X34088920Y-42349960D02*
X34088920Y-48349960D01*
X34978920Y-39689960D02*
X34978920Y-42349960D01*
X35868920Y-39359960D02*
X35868920Y-39689960D01*
X36628920Y-39359960D02*
X36628920Y-39689960D01*
X35968920Y-42349960D02*
X35968920Y-48349960D01*
X36088920Y-42349960D02*
X36088920Y-48349960D01*
X36208920Y-42349960D02*
X36208920Y-48349960D01*
X36328920Y-42349960D02*
X36328920Y-48349960D01*
X36448920Y-42349960D02*
X36448920Y-48349960D01*
X36568920Y-42349960D02*
X36568920Y-48349960D01*
X35868920Y-48349960D02*
X35868920Y-42349960D01*
X36628920Y-48349960D02*
X35868920Y-48349960D01*
X36628920Y-42349960D02*
X36628920Y-48349960D01*
X37578920Y-42349960D02*
X37578920Y-39689960D01*
X22218920Y-42349960D02*
X37578920Y-42349960D01*
X22218920Y-39689960D02*
X22218920Y-42349960D01*
X37578920Y-39689960D02*
X22218920Y-39689960D01*
X18613120Y-35189160D02*
X17343120Y-35189160D01*
X18613120Y-33919160D02*
X18613120Y-35189160D01*
X16300191Y-20839160D02*
X15903120Y-20839160D01*
X16300191Y-21599160D02*
X15903120Y-21599160D01*
X7243120Y-20839160D02*
X13243120Y-20839160D01*
X7243120Y-21599160D02*
X7243120Y-20839160D01*
X13243120Y-21599160D02*
X7243120Y-21599160D01*
X15903120Y-22489160D02*
X13243120Y-22489160D01*
X16300191Y-23379160D02*
X15903120Y-23379160D01*
X16300191Y-24139160D02*
X15903120Y-24139160D01*
X7243120Y-23379160D02*
X13243120Y-23379160D01*
X7243120Y-24139160D02*
X7243120Y-23379160D01*
X13243120Y-24139160D02*
X7243120Y-24139160D01*
X15903120Y-25029160D02*
X13243120Y-25029160D01*
X16300191Y-25919160D02*
X15903120Y-25919160D01*
X16300191Y-26679160D02*
X15903120Y-26679160D01*
X7243120Y-25919160D02*
X13243120Y-25919160D01*
X7243120Y-26679160D02*
X7243120Y-25919160D01*
X13243120Y-26679160D02*
X7243120Y-26679160D01*
X15903120Y-27569160D02*
X13243120Y-27569160D01*
X16300191Y-28459160D02*
X15903120Y-28459160D01*
X16300191Y-29219160D02*
X15903120Y-29219160D01*
X7243120Y-28459160D02*
X13243120Y-28459160D01*
X7243120Y-29219160D02*
X7243120Y-28459160D01*
X13243120Y-29219160D02*
X7243120Y-29219160D01*
X15903120Y-30109160D02*
X13243120Y-30109160D01*
X16300191Y-30999160D02*
X15903120Y-30999160D01*
X16300191Y-31759160D02*
X15903120Y-31759160D01*
X7243120Y-30999160D02*
X13243120Y-30999160D01*
X7243120Y-31759160D02*
X7243120Y-30999160D01*
X13243120Y-31759160D02*
X7243120Y-31759160D01*
X15903120Y-32649160D02*
X13243120Y-32649160D01*
X16233120Y-33539160D02*
X15903120Y-33539160D01*
X16233120Y-34299160D02*
X15903120Y-34299160D01*
X13243120Y-33639160D02*
X7243120Y-33639160D01*
X13243120Y-33759160D02*
X7243120Y-33759160D01*
X13243120Y-33879160D02*
X7243120Y-33879160D01*
X13243120Y-33999160D02*
X7243120Y-33999160D01*
X13243120Y-34119160D02*
X7243120Y-34119160D01*
X13243120Y-34239160D02*
X7243120Y-34239160D01*
X7243120Y-33539160D02*
X13243120Y-33539160D01*
X7243120Y-34299160D02*
X7243120Y-33539160D01*
X13243120Y-34299160D02*
X7243120Y-34299160D01*
X13243120Y-35249160D02*
X15903120Y-35249160D01*
X13243120Y-19889160D02*
X13243120Y-35249160D01*
X15903120Y-19889160D02*
X13243120Y-19889160D01*
X15903120Y-35249160D02*
X15903120Y-19889160D01*
X72052180Y-19916140D02*
X73322180Y-19916140D01*
X72052180Y-21186140D02*
X72052180Y-19916140D01*
X74365109Y-34266140D02*
X74762180Y-34266140D01*
X74365109Y-33506140D02*
X74762180Y-33506140D01*
X83422180Y-34266140D02*
X77422180Y-34266140D01*
X83422180Y-33506140D02*
X83422180Y-34266140D01*
X77422180Y-33506140D02*
X83422180Y-33506140D01*
X74762180Y-32616140D02*
X77422180Y-32616140D01*
X74365109Y-31726140D02*
X74762180Y-31726140D01*
X74365109Y-30966140D02*
X74762180Y-30966140D01*
X83422180Y-31726140D02*
X77422180Y-31726140D01*
X83422180Y-30966140D02*
X83422180Y-31726140D01*
X77422180Y-30966140D02*
X83422180Y-30966140D01*
X74762180Y-30076140D02*
X77422180Y-30076140D01*
X74365109Y-29186140D02*
X74762180Y-29186140D01*
X74365109Y-28426140D02*
X74762180Y-28426140D01*
X83422180Y-29186140D02*
X77422180Y-29186140D01*
X83422180Y-28426140D02*
X83422180Y-29186140D01*
X77422180Y-28426140D02*
X83422180Y-28426140D01*
X74762180Y-27536140D02*
X77422180Y-27536140D01*
X74365109Y-26646140D02*
X74762180Y-26646140D01*
X74365109Y-25886140D02*
X74762180Y-25886140D01*
X83422180Y-26646140D02*
X77422180Y-26646140D01*
X83422180Y-25886140D02*
X83422180Y-26646140D01*
X77422180Y-25886140D02*
X83422180Y-25886140D01*
X74762180Y-24996140D02*
X77422180Y-24996140D01*
X74365109Y-24106140D02*
X74762180Y-24106140D01*
X74365109Y-23346140D02*
X74762180Y-23346140D01*
X83422180Y-24106140D02*
X77422180Y-24106140D01*
X83422180Y-23346140D02*
X83422180Y-24106140D01*
X77422180Y-23346140D02*
X83422180Y-23346140D01*
X74762180Y-22456140D02*
X77422180Y-22456140D01*
X74432180Y-21566140D02*
X74762180Y-21566140D01*
X74432180Y-20806140D02*
X74762180Y-20806140D01*
X77422180Y-21466140D02*
X83422180Y-21466140D01*
X77422180Y-21346140D02*
X83422180Y-21346140D01*
X77422180Y-21226140D02*
X83422180Y-21226140D01*
X77422180Y-21106140D02*
X83422180Y-21106140D01*
X77422180Y-20986140D02*
X83422180Y-20986140D01*
X77422180Y-20866140D02*
X83422180Y-20866140D01*
X83422180Y-21566140D02*
X77422180Y-21566140D01*
X83422180Y-20806140D02*
X83422180Y-21566140D01*
X77422180Y-20806140D02*
X83422180Y-20806140D01*
X77422180Y-19856140D02*
X74762180Y-19856140D01*
X77422180Y-35216140D02*
X77422180Y-19856140D01*
X74762180Y-35216140D02*
X77422180Y-35216140D01*
X74762180Y-19856140D02*
X74762180Y-35216140D01*
X51518920Y-36979960D02*
X51518920Y-38249960D01*
X50248920Y-36979960D02*
X51518920Y-36979960D01*
X47328920Y-39292889D02*
X47328920Y-39689960D01*
X48088920Y-39292889D02*
X48088920Y-39689960D01*
X47328920Y-48349960D02*
X47328920Y-42349960D01*
X48088920Y-48349960D02*
X47328920Y-48349960D01*
X48088920Y-42349960D02*
X48088920Y-48349960D01*
X48978920Y-39689960D02*
X48978920Y-42349960D01*
X49868920Y-39359960D02*
X49868920Y-39689960D01*
X50628920Y-39359960D02*
X50628920Y-39689960D01*
X49968920Y-42349960D02*
X49968920Y-48349960D01*
X50088920Y-42349960D02*
X50088920Y-48349960D01*
X50208920Y-42349960D02*
X50208920Y-48349960D01*
X50328920Y-42349960D02*
X50328920Y-48349960D01*
X50448920Y-42349960D02*
X50448920Y-48349960D01*
X50568920Y-42349960D02*
X50568920Y-48349960D01*
X49868920Y-48349960D02*
X49868920Y-42349960D01*
X50628920Y-48349960D02*
X49868920Y-48349960D01*
X50628920Y-42349960D02*
X50628920Y-48349960D01*
X51578920Y-42349960D02*
X51578920Y-39689960D01*
X46378920Y-42349960D02*
X51578920Y-42349960D01*
X46378920Y-39689960D02*
X46378920Y-42349960D01*
X51578920Y-39689960D02*
X46378920Y-39689960D01*
X68518920Y-36979960D02*
X68518920Y-38249960D01*
X67248920Y-36979960D02*
X68518920Y-36979960D01*
X54168920Y-39292889D02*
X54168920Y-39689960D01*
X54928920Y-39292889D02*
X54928920Y-39689960D01*
X54168920Y-48349960D02*
X54168920Y-42349960D01*
X54928920Y-48349960D02*
X54168920Y-48349960D01*
X54928920Y-42349960D02*
X54928920Y-48349960D01*
X55818920Y-39689960D02*
X55818920Y-42349960D01*
X56708920Y-39292889D02*
X56708920Y-39689960D01*
X57468920Y-39292889D02*
X57468920Y-39689960D01*
X56708920Y-48349960D02*
X56708920Y-42349960D01*
X57468920Y-48349960D02*
X56708920Y-48349960D01*
X57468920Y-42349960D02*
X57468920Y-48349960D01*
X58358920Y-39689960D02*
X58358920Y-42349960D01*
X59248920Y-39292889D02*
X59248920Y-39689960D01*
X60008920Y-39292889D02*
X60008920Y-39689960D01*
X59248920Y-48349960D02*
X59248920Y-42349960D01*
X60008920Y-48349960D02*
X59248920Y-48349960D01*
X60008920Y-42349960D02*
X60008920Y-48349960D01*
X60898920Y-39689960D02*
X60898920Y-42349960D01*
X61788920Y-39292889D02*
X61788920Y-39689960D01*
X62548920Y-39292889D02*
X62548920Y-39689960D01*
X61788920Y-48349960D02*
X61788920Y-42349960D01*
X62548920Y-48349960D02*
X61788920Y-48349960D01*
X62548920Y-42349960D02*
X62548920Y-48349960D01*
X63438920Y-39689960D02*
X63438920Y-42349960D01*
X64328920Y-39292889D02*
X64328920Y-39689960D01*
X65088920Y-39292889D02*
X65088920Y-39689960D01*
X64328920Y-48349960D02*
X64328920Y-42349960D01*
X65088920Y-48349960D02*
X64328920Y-48349960D01*
X65088920Y-42349960D02*
X65088920Y-48349960D01*
X65978920Y-39689960D02*
X65978920Y-42349960D01*
X66868920Y-39359960D02*
X66868920Y-39689960D01*
X67628920Y-39359960D02*
X67628920Y-39689960D01*
X66968920Y-42349960D02*
X66968920Y-48349960D01*
X67088920Y-42349960D02*
X67088920Y-48349960D01*
X67208920Y-42349960D02*
X67208920Y-48349960D01*
X67328920Y-42349960D02*
X67328920Y-48349960D01*
X67448920Y-42349960D02*
X67448920Y-48349960D01*
X67568920Y-42349960D02*
X67568920Y-48349960D01*
X66868920Y-48349960D02*
X66868920Y-42349960D01*
X67628920Y-48349960D02*
X66868920Y-48349960D01*
X67628920Y-42349960D02*
X67628920Y-48349960D01*
X68578920Y-42349960D02*
X68578920Y-39689960D01*
X53218920Y-42349960D02*
X68578920Y-42349960D01*
X53218920Y-39689960D02*
X53218920Y-42349960D01*
X68578920Y-39689960D02*
X53218920Y-39689960D01*
X44518920Y-36979960D02*
X44518920Y-38249960D01*
X43248920Y-36979960D02*
X44518920Y-36979960D01*
X40328920Y-39292889D02*
X40328920Y-39689960D01*
X41088920Y-39292889D02*
X41088920Y-39689960D01*
X40328920Y-48349960D02*
X40328920Y-42349960D01*
X41088920Y-48349960D02*
X40328920Y-48349960D01*
X41088920Y-42349960D02*
X41088920Y-48349960D01*
X41978920Y-39689960D02*
X41978920Y-42349960D01*
X42868920Y-39359960D02*
X42868920Y-39689960D01*
X43628920Y-39359960D02*
X43628920Y-39689960D01*
X42968920Y-42349960D02*
X42968920Y-48349960D01*
X43088920Y-42349960D02*
X43088920Y-48349960D01*
X43208920Y-42349960D02*
X43208920Y-48349960D01*
X43328920Y-42349960D02*
X43328920Y-48349960D01*
X43448920Y-42349960D02*
X43448920Y-48349960D01*
X43568920Y-42349960D02*
X43568920Y-48349960D01*
X42868920Y-48349960D02*
X42868920Y-42349960D01*
X43628920Y-48349960D02*
X42868920Y-48349960D01*
X43628920Y-42349960D02*
X43628920Y-48349960D01*
X44578920Y-42349960D02*
X44578920Y-39689960D01*
X39378920Y-42349960D02*
X44578920Y-42349960D01*
X39378920Y-39689960D02*
X39378920Y-42349960D01*
X44578920Y-39689960D02*
X39378920Y-39689960D01*
X28052000Y-19654000D02*
X28052000Y-21494000D01*
X28052000Y-21494000D02*
X31892000Y-21494000D01*
X31892000Y-21494000D02*
X31892000Y-19654000D01*
X31892000Y-19654000D02*
X28052000Y-19654000D01*
X27102000Y-20574000D02*
X28052000Y-20574000D01*
X32842000Y-20574000D02*
X31892000Y-20574000D01*
X32842000Y-22860000D02*
X31892000Y-22860000D01*
X27102000Y-22860000D02*
X28052000Y-22860000D01*
X31892000Y-21940000D02*
X28052000Y-21940000D01*
X31892000Y-23780000D02*
X31892000Y-21940000D01*
X28052000Y-23780000D02*
X31892000Y-23780000D01*
X28052000Y-21940000D02*
X28052000Y-23780000D01*
X28052000Y-25496000D02*
X28052000Y-27336000D01*
X28052000Y-27336000D02*
X31892000Y-27336000D01*
X31892000Y-27336000D02*
X31892000Y-25496000D01*
X31892000Y-25496000D02*
X28052000Y-25496000D01*
X27102000Y-26416000D02*
X28052000Y-26416000D01*
X32842000Y-26416000D02*
X31892000Y-26416000D01*
X32842000Y-28702000D02*
X31892000Y-28702000D01*
X27102000Y-28702000D02*
X28052000Y-28702000D01*
X31892000Y-27782000D02*
X28052000Y-27782000D01*
X31892000Y-29622000D02*
X31892000Y-27782000D01*
X28052000Y-29622000D02*
X31892000Y-29622000D01*
X28052000Y-27782000D02*
X28052000Y-29622000D01*
X20119822Y-24073638D02*
G75*
G03X24558300Y-22235160I1838478J1838478D01*
G01*
X20119822Y-20396682D02*
G75*
G02X24558300Y-22235160I1838478J-1838478D01*
G01*
X20108300Y-20435160D02*
X20108300Y-24035160D01*
X63947522Y-19751522D02*
G75*
G03X65786000Y-24190000I1838478J-1838478D01*
G01*
X67624478Y-19751522D02*
G75*
G02X65786000Y-24190000I-1838478J-1838478D01*
G01*
X67586000Y-19740000D02*
X63986000Y-19740000D01*
X52771522Y-19751522D02*
G75*
G03X54610000Y-24190000I1838478J-1838478D01*
G01*
X56448478Y-19751522D02*
G75*
G02X54610000Y-24190000I-1838478J-1838478D01*
G01*
X56410000Y-19740000D02*
X52810000Y-19740000D01*
X47183522Y-19751522D02*
G75*
G03X49022000Y-24190000I1838478J-1838478D01*
G01*
X50860478Y-19751522D02*
G75*
G02X49022000Y-24190000I-1838478J-1838478D01*
G01*
X50822000Y-19740000D02*
X47222000Y-19740000D01*
X41595522Y-19751522D02*
G75*
G03X43434000Y-24190000I1838478J-1838478D01*
G01*
X45272478Y-19751522D02*
G75*
G02X43434000Y-24190000I-1838478J-1838478D01*
G01*
X45234000Y-19740000D02*
X41634000Y-19740000D01*
X36007522Y-19751522D02*
G75*
G03X37846000Y-24190000I1838478J-1838478D01*
G01*
X39684478Y-19751522D02*
G75*
G02X37846000Y-24190000I-1838478J-1838478D01*
G01*
X39646000Y-19740000D02*
X36046000Y-19740000D01*
X39055522Y-31689522D02*
G75*
G03X40894000Y-36128000I1838478J-1838478D01*
G01*
X42732478Y-31689522D02*
G75*
G02X40894000Y-36128000I-1838478J-1838478D01*
G01*
X42694000Y-31678000D02*
X39094000Y-31678000D01*
D11*
X19526920Y-19009960D02*
X21076920Y-19009960D01*
X22346920Y-16189960D02*
X22346920Y-18729960D01*
X19806920Y-16189960D02*
X22346920Y-16189960D01*
X19526920Y-17459960D02*
X19526920Y-19009960D01*
X19806920Y-13649960D02*
X19806920Y-16189960D01*
X70606920Y-13649960D02*
X70606920Y-18729960D01*
X22346920Y-18729960D02*
X70606920Y-18729960D01*
X70606920Y-13649960D02*
X19806920Y-13649960D01*
D10*
X67346000Y-26860000D02*
X67346000Y-26704000D01*
X67346000Y-29176000D02*
X67346000Y-29020000D01*
X64744870Y-26860163D02*
G75*
G02X66826961Y-26860000I1041130J-1079837D01*
G01*
X64744870Y-29019837D02*
G75*
G03X66826961Y-29020000I1041130J1079837D01*
G01*
X64113665Y-26861392D02*
G75*
G02X67346000Y-26704484I1672335J-1078608D01*
G01*
X64113665Y-29018608D02*
G75*
G03X67346000Y-29175516I1672335J1078608D01*
G01*
X61758000Y-26860000D02*
X61758000Y-26704000D01*
X61758000Y-29176000D02*
X61758000Y-29020000D01*
X59156870Y-26860163D02*
G75*
G02X61238961Y-26860000I1041130J-1079837D01*
G01*
X59156870Y-29019837D02*
G75*
G03X61238961Y-29020000I1041130J1079837D01*
G01*
X58525665Y-26861392D02*
G75*
G02X61758000Y-26704484I1672335J-1078608D01*
G01*
X58525665Y-29018608D02*
G75*
G03X61758000Y-29175516I1672335J1078608D01*
G01*
X56170000Y-26860000D02*
X56170000Y-26704000D01*
X56170000Y-29176000D02*
X56170000Y-29020000D01*
X53568870Y-26860163D02*
G75*
G02X55650961Y-26860000I1041130J-1079837D01*
G01*
X53568870Y-29019837D02*
G75*
G03X55650961Y-29020000I1041130J1079837D01*
G01*
X52937665Y-26861392D02*
G75*
G02X56170000Y-26704484I1672335J-1078608D01*
G01*
X52937665Y-29018608D02*
G75*
G03X56170000Y-29175516I1672335J1078608D01*
G01*
X50541360Y-26860000D02*
X50541360Y-26704000D01*
X50541360Y-29176000D02*
X50541360Y-29020000D01*
X47940230Y-26860163D02*
G75*
G02X50022321Y-26860000I1041130J-1079837D01*
G01*
X47940230Y-29019837D02*
G75*
G03X50022321Y-29020000I1041130J1079837D01*
G01*
X47309025Y-26861392D02*
G75*
G02X50541360Y-26704484I1672335J-1078608D01*
G01*
X47309025Y-29018608D02*
G75*
G03X50541360Y-29175516I1672335J1078608D01*
G01*
X44994000Y-26860000D02*
X44994000Y-26704000D01*
X44994000Y-29176000D02*
X44994000Y-29020000D01*
X42392870Y-26860163D02*
G75*
G02X44474961Y-26860000I1041130J-1079837D01*
G01*
X42392870Y-29019837D02*
G75*
G03X44474961Y-29020000I1041130J1079837D01*
G01*
X41761665Y-26861392D02*
G75*
G02X44994000Y-26704484I1672335J-1078608D01*
G01*
X41761665Y-29018608D02*
G75*
G03X44994000Y-29175516I1672335J1078608D01*
G01*
X39406000Y-26860000D02*
X39406000Y-26704000D01*
X39406000Y-29176000D02*
X39406000Y-29020000D01*
X36804870Y-26860163D02*
G75*
G02X38886961Y-26860000I1041130J-1079837D01*
G01*
X36804870Y-29019837D02*
G75*
G03X38886961Y-29020000I1041130J1079837D01*
G01*
X36173665Y-26861392D02*
G75*
G02X39406000Y-26704484I1672335J-1078608D01*
G01*
X36173665Y-29018608D02*
G75*
G03X39406000Y-29175516I1672335J1078608D01*
G01*
X47788000Y-32702000D02*
X47788000Y-32546000D01*
X47788000Y-35018000D02*
X47788000Y-34862000D01*
X45186870Y-32702163D02*
G75*
G02X47268961Y-32702000I1041130J-1079837D01*
G01*
X45186870Y-34861837D02*
G75*
G03X47268961Y-34862000I1041130J1079837D01*
G01*
X44555665Y-32703392D02*
G75*
G02X47788000Y-32546484I1672335J-1078608D01*
G01*
X44555665Y-34860608D02*
G75*
G03X47788000Y-35017516I1672335J1078608D01*
G01*
D11*
X24542761Y-31027619D02*
X24447523Y-30980000D01*
X24352285Y-30884761D01*
X24209428Y-30741904D01*
X24114190Y-30694285D01*
X24018952Y-30694285D01*
X24066571Y-30932380D02*
X23971333Y-30884761D01*
X23876095Y-30789523D01*
X23828476Y-30599047D01*
X23828476Y-30265714D01*
X23876095Y-30075238D01*
X23971333Y-29980000D01*
X24066571Y-29932380D01*
X24257047Y-29932380D01*
X24352285Y-29980000D01*
X24447523Y-30075238D01*
X24495142Y-30265714D01*
X24495142Y-30599047D01*
X24447523Y-30789523D01*
X24352285Y-30884761D01*
X24257047Y-30932380D01*
X24066571Y-30932380D01*
X25066571Y-30360952D02*
X24971333Y-30313333D01*
X24923714Y-30265714D01*
X24876095Y-30170476D01*
X24876095Y-30122857D01*
X24923714Y-30027619D01*
X24971333Y-29980000D01*
X25066571Y-29932380D01*
X25257047Y-29932380D01*
X25352285Y-29980000D01*
X25399904Y-30027619D01*
X25447523Y-30122857D01*
X25447523Y-30170476D01*
X25399904Y-30265714D01*
X25352285Y-30313333D01*
X25257047Y-30360952D01*
X25066571Y-30360952D01*
X24971333Y-30408571D01*
X24923714Y-30456190D01*
X24876095Y-30551428D01*
X24876095Y-30741904D01*
X24923714Y-30837142D01*
X24971333Y-30884761D01*
X25066571Y-30932380D01*
X25257047Y-30932380D01*
X25352285Y-30884761D01*
X25399904Y-30837142D01*
X25447523Y-30741904D01*
X25447523Y-30551428D01*
X25399904Y-30456190D01*
X25352285Y-30408571D01*
X25257047Y-30360952D01*
X60102761Y-23919619D02*
X60007523Y-23872000D01*
X59912285Y-23776761D01*
X59769428Y-23633904D01*
X59674190Y-23586285D01*
X59578952Y-23586285D01*
X59626571Y-23824380D02*
X59531333Y-23776761D01*
X59436095Y-23681523D01*
X59388476Y-23491047D01*
X59388476Y-23157714D01*
X59436095Y-22967238D01*
X59531333Y-22872000D01*
X59626571Y-22824380D01*
X59817047Y-22824380D01*
X59912285Y-22872000D01*
X60007523Y-22967238D01*
X60055142Y-23157714D01*
X60055142Y-23491047D01*
X60007523Y-23681523D01*
X59912285Y-23776761D01*
X59817047Y-23824380D01*
X59626571Y-23824380D01*
X60912285Y-22824380D02*
X60721809Y-22824380D01*
X60626571Y-22872000D01*
X60578952Y-22919619D01*
X60483714Y-23062476D01*
X60436095Y-23252952D01*
X60436095Y-23633904D01*
X60483714Y-23729142D01*
X60531333Y-23776761D01*
X60626571Y-23824380D01*
X60817047Y-23824380D01*
X60912285Y-23776761D01*
X60959904Y-23729142D01*
X61007523Y-23633904D01*
X61007523Y-23395809D01*
X60959904Y-23300571D01*
X60912285Y-23252952D01*
X60817047Y-23205333D01*
X60626571Y-23205333D01*
X60531333Y-23252952D01*
X60483714Y-23300571D01*
X60436095Y-23395809D01*
X21256666Y-38314380D02*
X21256666Y-39028666D01*
X21209047Y-39171523D01*
X21113809Y-39266761D01*
X20970952Y-39314380D01*
X20875714Y-39314380D01*
X22209047Y-38314380D02*
X21732857Y-38314380D01*
X21685238Y-38790571D01*
X21732857Y-38742952D01*
X21828095Y-38695333D01*
X22066190Y-38695333D01*
X22161428Y-38742952D01*
X22209047Y-38790571D01*
X22256666Y-38885809D01*
X22256666Y-39123904D01*
X22209047Y-39219142D01*
X22161428Y-39266761D01*
X22066190Y-39314380D01*
X21828095Y-39314380D01*
X21732857Y-39266761D01*
X21685238Y-39219142D01*
X13636666Y-35520380D02*
X13636666Y-36234666D01*
X13589047Y-36377523D01*
X13493809Y-36472761D01*
X13350952Y-36520380D01*
X13255714Y-36520380D01*
X14541428Y-35520380D02*
X14350952Y-35520380D01*
X14255714Y-35568000D01*
X14208095Y-35615619D01*
X14112857Y-35758476D01*
X14065238Y-35948952D01*
X14065238Y-36329904D01*
X14112857Y-36425142D01*
X14160476Y-36472761D01*
X14255714Y-36520380D01*
X14446190Y-36520380D01*
X14541428Y-36472761D01*
X14589047Y-36425142D01*
X14636666Y-36329904D01*
X14636666Y-36091809D01*
X14589047Y-35996571D01*
X14541428Y-35948952D01*
X14446190Y-35901333D01*
X14255714Y-35901333D01*
X14160476Y-35948952D01*
X14112857Y-35996571D01*
X14065238Y-36091809D01*
X76628666Y-35520380D02*
X76628666Y-36234666D01*
X76581047Y-36377523D01*
X76485809Y-36472761D01*
X76342952Y-36520380D01*
X76247714Y-36520380D01*
X77533428Y-35853714D02*
X77533428Y-36520380D01*
X77295333Y-35472761D02*
X77057238Y-36187047D01*
X77676285Y-36187047D01*
X45386666Y-38314380D02*
X45386666Y-39028666D01*
X45339047Y-39171523D01*
X45243809Y-39266761D01*
X45100952Y-39314380D01*
X45005714Y-39314380D01*
X45815238Y-38409619D02*
X45862857Y-38362000D01*
X45958095Y-38314380D01*
X46196190Y-38314380D01*
X46291428Y-38362000D01*
X46339047Y-38409619D01*
X46386666Y-38504857D01*
X46386666Y-38600095D01*
X46339047Y-38742952D01*
X45767619Y-39314380D01*
X46386666Y-39314380D01*
X52244666Y-38314380D02*
X52244666Y-39028666D01*
X52197047Y-39171523D01*
X52101809Y-39266761D01*
X51958952Y-39314380D01*
X51863714Y-39314380D01*
X52625619Y-38314380D02*
X53244666Y-38314380D01*
X52911333Y-38695333D01*
X53054190Y-38695333D01*
X53149428Y-38742952D01*
X53197047Y-38790571D01*
X53244666Y-38885809D01*
X53244666Y-39123904D01*
X53197047Y-39219142D01*
X53149428Y-39266761D01*
X53054190Y-39314380D01*
X52768476Y-39314380D01*
X52673238Y-39266761D01*
X52625619Y-39219142D01*
X38528666Y-38314380D02*
X38528666Y-39028666D01*
X38481047Y-39171523D01*
X38385809Y-39266761D01*
X38242952Y-39314380D01*
X38147714Y-39314380D01*
X39528666Y-39314380D02*
X38957238Y-39314380D01*
X39242952Y-39314380D02*
X39242952Y-38314380D01*
X39147714Y-38457238D01*
X39052476Y-38552476D01*
X38957238Y-38600095D01*
X29779933Y-20965420D02*
X29446600Y-20489230D01*
X29208504Y-20965420D02*
X29208504Y-19965420D01*
X29589457Y-19965420D01*
X29684695Y-20013040D01*
X29732314Y-20060659D01*
X29779933Y-20155897D01*
X29779933Y-20298754D01*
X29732314Y-20393992D01*
X29684695Y-20441611D01*
X29589457Y-20489230D01*
X29208504Y-20489230D01*
X30637076Y-20298754D02*
X30637076Y-20965420D01*
X30398980Y-19917801D02*
X30160885Y-20632087D01*
X30779933Y-20632087D01*
X29779933Y-23264120D02*
X29446600Y-22787930D01*
X29208504Y-23264120D02*
X29208504Y-22264120D01*
X29589457Y-22264120D01*
X29684695Y-22311740D01*
X29732314Y-22359359D01*
X29779933Y-22454597D01*
X29779933Y-22597454D01*
X29732314Y-22692692D01*
X29684695Y-22740311D01*
X29589457Y-22787930D01*
X29208504Y-22787930D01*
X30113266Y-22264120D02*
X30732314Y-22264120D01*
X30398980Y-22645073D01*
X30541838Y-22645073D01*
X30637076Y-22692692D01*
X30684695Y-22740311D01*
X30732314Y-22835549D01*
X30732314Y-23073644D01*
X30684695Y-23168882D01*
X30637076Y-23216501D01*
X30541838Y-23264120D01*
X30256123Y-23264120D01*
X30160885Y-23216501D01*
X30113266Y-23168882D01*
X29805333Y-26921720D02*
X29472000Y-26445530D01*
X29233904Y-26921720D02*
X29233904Y-25921720D01*
X29614857Y-25921720D01*
X29710095Y-25969340D01*
X29757714Y-26016959D01*
X29805333Y-26112197D01*
X29805333Y-26255054D01*
X29757714Y-26350292D01*
X29710095Y-26397911D01*
X29614857Y-26445530D01*
X29233904Y-26445530D01*
X30186285Y-26016959D02*
X30233904Y-25969340D01*
X30329142Y-25921720D01*
X30567238Y-25921720D01*
X30662476Y-25969340D01*
X30710095Y-26016959D01*
X30757714Y-26112197D01*
X30757714Y-26207435D01*
X30710095Y-26350292D01*
X30138666Y-26921720D01*
X30757714Y-26921720D01*
X29805333Y-29093420D02*
X29472000Y-28617230D01*
X29233904Y-29093420D02*
X29233904Y-28093420D01*
X29614857Y-28093420D01*
X29710095Y-28141040D01*
X29757714Y-28188659D01*
X29805333Y-28283897D01*
X29805333Y-28426754D01*
X29757714Y-28521992D01*
X29710095Y-28569611D01*
X29614857Y-28617230D01*
X29233904Y-28617230D01*
X30757714Y-29093420D02*
X30186285Y-29093420D01*
X30472000Y-29093420D02*
X30472000Y-28093420D01*
X30376761Y-28236278D01*
X30281523Y-28331516D01*
X30186285Y-28379135D01*
X24542761Y-25439619D02*
X24447523Y-25392000D01*
X24352285Y-25296761D01*
X24209428Y-25153904D01*
X24114190Y-25106285D01*
X24018952Y-25106285D01*
X24066571Y-25344380D02*
X23971333Y-25296761D01*
X23876095Y-25201523D01*
X23828476Y-25011047D01*
X23828476Y-24677714D01*
X23876095Y-24487238D01*
X23971333Y-24392000D01*
X24066571Y-24344380D01*
X24257047Y-24344380D01*
X24352285Y-24392000D01*
X24447523Y-24487238D01*
X24495142Y-24677714D01*
X24495142Y-25011047D01*
X24447523Y-25201523D01*
X24352285Y-25296761D01*
X24257047Y-25344380D01*
X24066571Y-25344380D01*
X24971333Y-25344380D02*
X25161809Y-25344380D01*
X25257047Y-25296761D01*
X25304666Y-25249142D01*
X25399904Y-25106285D01*
X25447523Y-24915809D01*
X25447523Y-24534857D01*
X25399904Y-24439619D01*
X25352285Y-24392000D01*
X25257047Y-24344380D01*
X25066571Y-24344380D01*
X24971333Y-24392000D01*
X24923714Y-24439619D01*
X24876095Y-24534857D01*
X24876095Y-24772952D01*
X24923714Y-24868190D01*
X24971333Y-24915809D01*
X25066571Y-24963428D01*
X25257047Y-24963428D01*
X25352285Y-24915809D01*
X25399904Y-24868190D01*
X25447523Y-24772952D01*
X65690761Y-23919619D02*
X65595523Y-23872000D01*
X65500285Y-23776761D01*
X65357428Y-23633904D01*
X65262190Y-23586285D01*
X65166952Y-23586285D01*
X65214571Y-23824380D02*
X65119333Y-23776761D01*
X65024095Y-23681523D01*
X64976476Y-23491047D01*
X64976476Y-23157714D01*
X65024095Y-22967238D01*
X65119333Y-22872000D01*
X65214571Y-22824380D01*
X65405047Y-22824380D01*
X65500285Y-22872000D01*
X65595523Y-22967238D01*
X65643142Y-23157714D01*
X65643142Y-23491047D01*
X65595523Y-23681523D01*
X65500285Y-23776761D01*
X65405047Y-23824380D01*
X65214571Y-23824380D01*
X65976476Y-22824380D02*
X66643142Y-22824380D01*
X66214571Y-23824380D01*
X54514761Y-23919619D02*
X54419523Y-23872000D01*
X54324285Y-23776761D01*
X54181428Y-23633904D01*
X54086190Y-23586285D01*
X53990952Y-23586285D01*
X54038571Y-23824380D02*
X53943333Y-23776761D01*
X53848095Y-23681523D01*
X53800476Y-23491047D01*
X53800476Y-23157714D01*
X53848095Y-22967238D01*
X53943333Y-22872000D01*
X54038571Y-22824380D01*
X54229047Y-22824380D01*
X54324285Y-22872000D01*
X54419523Y-22967238D01*
X54467142Y-23157714D01*
X54467142Y-23491047D01*
X54419523Y-23681523D01*
X54324285Y-23776761D01*
X54229047Y-23824380D01*
X54038571Y-23824380D01*
X55371904Y-22824380D02*
X54895714Y-22824380D01*
X54848095Y-23300571D01*
X54895714Y-23252952D01*
X54990952Y-23205333D01*
X55229047Y-23205333D01*
X55324285Y-23252952D01*
X55371904Y-23300571D01*
X55419523Y-23395809D01*
X55419523Y-23633904D01*
X55371904Y-23729142D01*
X55324285Y-23776761D01*
X55229047Y-23824380D01*
X54990952Y-23824380D01*
X54895714Y-23776761D01*
X54848095Y-23729142D01*
X48926761Y-23919619D02*
X48831523Y-23872000D01*
X48736285Y-23776761D01*
X48593428Y-23633904D01*
X48498190Y-23586285D01*
X48402952Y-23586285D01*
X48450571Y-23824380D02*
X48355333Y-23776761D01*
X48260095Y-23681523D01*
X48212476Y-23491047D01*
X48212476Y-23157714D01*
X48260095Y-22967238D01*
X48355333Y-22872000D01*
X48450571Y-22824380D01*
X48641047Y-22824380D01*
X48736285Y-22872000D01*
X48831523Y-22967238D01*
X48879142Y-23157714D01*
X48879142Y-23491047D01*
X48831523Y-23681523D01*
X48736285Y-23776761D01*
X48641047Y-23824380D01*
X48450571Y-23824380D01*
X49736285Y-23157714D02*
X49736285Y-23824380D01*
X49498190Y-22776761D02*
X49260095Y-23491047D01*
X49879142Y-23491047D01*
X43338761Y-23919619D02*
X43243523Y-23872000D01*
X43148285Y-23776761D01*
X43005428Y-23633904D01*
X42910190Y-23586285D01*
X42814952Y-23586285D01*
X42862571Y-23824380D02*
X42767333Y-23776761D01*
X42672095Y-23681523D01*
X42624476Y-23491047D01*
X42624476Y-23157714D01*
X42672095Y-22967238D01*
X42767333Y-22872000D01*
X42862571Y-22824380D01*
X43053047Y-22824380D01*
X43148285Y-22872000D01*
X43243523Y-22967238D01*
X43291142Y-23157714D01*
X43291142Y-23491047D01*
X43243523Y-23681523D01*
X43148285Y-23776761D01*
X43053047Y-23824380D01*
X42862571Y-23824380D01*
X43624476Y-22824380D02*
X44243523Y-22824380D01*
X43910190Y-23205333D01*
X44053047Y-23205333D01*
X44148285Y-23252952D01*
X44195904Y-23300571D01*
X44243523Y-23395809D01*
X44243523Y-23633904D01*
X44195904Y-23729142D01*
X44148285Y-23776761D01*
X44053047Y-23824380D01*
X43767333Y-23824380D01*
X43672095Y-23776761D01*
X43624476Y-23729142D01*
X37750761Y-23919619D02*
X37655523Y-23872000D01*
X37560285Y-23776761D01*
X37417428Y-23633904D01*
X37322190Y-23586285D01*
X37226952Y-23586285D01*
X37274571Y-23824380D02*
X37179333Y-23776761D01*
X37084095Y-23681523D01*
X37036476Y-23491047D01*
X37036476Y-23157714D01*
X37084095Y-22967238D01*
X37179333Y-22872000D01*
X37274571Y-22824380D01*
X37465047Y-22824380D01*
X37560285Y-22872000D01*
X37655523Y-22967238D01*
X37703142Y-23157714D01*
X37703142Y-23491047D01*
X37655523Y-23681523D01*
X37560285Y-23776761D01*
X37465047Y-23824380D01*
X37274571Y-23824380D01*
X38084095Y-22919619D02*
X38131714Y-22872000D01*
X38226952Y-22824380D01*
X38465047Y-22824380D01*
X38560285Y-22872000D01*
X38607904Y-22919619D01*
X38655523Y-23014857D01*
X38655523Y-23110095D01*
X38607904Y-23252952D01*
X38036476Y-23824380D01*
X38655523Y-23824380D01*
X40798761Y-35853619D02*
X40703523Y-35806000D01*
X40608285Y-35710761D01*
X40465428Y-35567904D01*
X40370190Y-35520285D01*
X40274952Y-35520285D01*
X40322571Y-35758380D02*
X40227333Y-35710761D01*
X40132095Y-35615523D01*
X40084476Y-35425047D01*
X40084476Y-35091714D01*
X40132095Y-34901238D01*
X40227333Y-34806000D01*
X40322571Y-34758380D01*
X40513047Y-34758380D01*
X40608285Y-34806000D01*
X40703523Y-34901238D01*
X40751142Y-35091714D01*
X40751142Y-35425047D01*
X40703523Y-35615523D01*
X40608285Y-35710761D01*
X40513047Y-35758380D01*
X40322571Y-35758380D01*
X41703523Y-35758380D02*
X41132095Y-35758380D01*
X41417809Y-35758380D02*
X41417809Y-34758380D01*
X41322571Y-34901238D01*
X41227333Y-34996476D01*
X41132095Y-35044095D01*
X18970666Y-19264380D02*
X18970666Y-19978666D01*
X18923047Y-20121523D01*
X18827809Y-20216761D01*
X18684952Y-20264380D01*
X18589714Y-20264380D01*
X19351619Y-19264380D02*
X20018285Y-19264380D01*
X19589714Y-20264380D01*
X65047904Y-31352380D02*
X65047904Y-30352380D01*
X65286000Y-30352380D01*
X65428857Y-30400000D01*
X65524095Y-30495238D01*
X65571714Y-30590476D01*
X65619333Y-30780952D01*
X65619333Y-30923809D01*
X65571714Y-31114285D01*
X65524095Y-31209523D01*
X65428857Y-31304761D01*
X65286000Y-31352380D01*
X65047904Y-31352380D01*
X65952666Y-30352380D02*
X66619333Y-30352380D01*
X66190761Y-31352380D01*
X59459904Y-31352380D02*
X59459904Y-30352380D01*
X59698000Y-30352380D01*
X59840857Y-30400000D01*
X59936095Y-30495238D01*
X59983714Y-30590476D01*
X60031333Y-30780952D01*
X60031333Y-30923809D01*
X59983714Y-31114285D01*
X59936095Y-31209523D01*
X59840857Y-31304761D01*
X59698000Y-31352380D01*
X59459904Y-31352380D01*
X60888476Y-30352380D02*
X60698000Y-30352380D01*
X60602761Y-30400000D01*
X60555142Y-30447619D01*
X60459904Y-30590476D01*
X60412285Y-30780952D01*
X60412285Y-31161904D01*
X60459904Y-31257142D01*
X60507523Y-31304761D01*
X60602761Y-31352380D01*
X60793238Y-31352380D01*
X60888476Y-31304761D01*
X60936095Y-31257142D01*
X60983714Y-31161904D01*
X60983714Y-30923809D01*
X60936095Y-30828571D01*
X60888476Y-30780952D01*
X60793238Y-30733333D01*
X60602761Y-30733333D01*
X60507523Y-30780952D01*
X60459904Y-30828571D01*
X60412285Y-30923809D01*
X53871904Y-31352380D02*
X53871904Y-30352380D01*
X54110000Y-30352380D01*
X54252857Y-30400000D01*
X54348095Y-30495238D01*
X54395714Y-30590476D01*
X54443333Y-30780952D01*
X54443333Y-30923809D01*
X54395714Y-31114285D01*
X54348095Y-31209523D01*
X54252857Y-31304761D01*
X54110000Y-31352380D01*
X53871904Y-31352380D01*
X55348095Y-30352380D02*
X54871904Y-30352380D01*
X54824285Y-30828571D01*
X54871904Y-30780952D01*
X54967142Y-30733333D01*
X55205238Y-30733333D01*
X55300476Y-30780952D01*
X55348095Y-30828571D01*
X55395714Y-30923809D01*
X55395714Y-31161904D01*
X55348095Y-31257142D01*
X55300476Y-31304761D01*
X55205238Y-31352380D01*
X54967142Y-31352380D01*
X54871904Y-31304761D01*
X54824285Y-31257142D01*
X48243264Y-31352380D02*
X48243264Y-30352380D01*
X48481360Y-30352380D01*
X48624217Y-30400000D01*
X48719455Y-30495238D01*
X48767074Y-30590476D01*
X48814693Y-30780952D01*
X48814693Y-30923809D01*
X48767074Y-31114285D01*
X48719455Y-31209523D01*
X48624217Y-31304761D01*
X48481360Y-31352380D01*
X48243264Y-31352380D01*
X49671836Y-30685714D02*
X49671836Y-31352380D01*
X49433740Y-30304761D02*
X49195645Y-31019047D01*
X49814693Y-31019047D01*
X42695904Y-31352380D02*
X42695904Y-30352380D01*
X42934000Y-30352380D01*
X43076857Y-30400000D01*
X43172095Y-30495238D01*
X43219714Y-30590476D01*
X43267333Y-30780952D01*
X43267333Y-30923809D01*
X43219714Y-31114285D01*
X43172095Y-31209523D01*
X43076857Y-31304761D01*
X42934000Y-31352380D01*
X42695904Y-31352380D01*
X43600666Y-30352380D02*
X44219714Y-30352380D01*
X43886380Y-30733333D01*
X44029238Y-30733333D01*
X44124476Y-30780952D01*
X44172095Y-30828571D01*
X44219714Y-30923809D01*
X44219714Y-31161904D01*
X44172095Y-31257142D01*
X44124476Y-31304761D01*
X44029238Y-31352380D01*
X43743523Y-31352380D01*
X43648285Y-31304761D01*
X43600666Y-31257142D01*
X37107904Y-31352380D02*
X37107904Y-30352380D01*
X37346000Y-30352380D01*
X37488857Y-30400000D01*
X37584095Y-30495238D01*
X37631714Y-30590476D01*
X37679333Y-30780952D01*
X37679333Y-30923809D01*
X37631714Y-31114285D01*
X37584095Y-31209523D01*
X37488857Y-31304761D01*
X37346000Y-31352380D01*
X37107904Y-31352380D01*
X38060285Y-30447619D02*
X38107904Y-30400000D01*
X38203142Y-30352380D01*
X38441238Y-30352380D01*
X38536476Y-30400000D01*
X38584095Y-30447619D01*
X38631714Y-30542857D01*
X38631714Y-30638095D01*
X38584095Y-30780952D01*
X38012666Y-31352380D01*
X38631714Y-31352380D01*
X45489904Y-37194380D02*
X45489904Y-36194380D01*
X45728000Y-36194380D01*
X45870857Y-36242000D01*
X45966095Y-36337238D01*
X46013714Y-36432476D01*
X46061333Y-36622952D01*
X46061333Y-36765809D01*
X46013714Y-36956285D01*
X45966095Y-37051523D01*
X45870857Y-37146761D01*
X45728000Y-37194380D01*
X45489904Y-37194380D01*
X47013714Y-37194380D02*
X46442285Y-37194380D01*
X46728000Y-37194380D02*
X46728000Y-36194380D01*
X46632761Y-36337238D01*
X46537523Y-36432476D01*
X46442285Y-36480095D01*
M02*
